<svg viewBox="0 0 16 16" fill="none" xmlns="http://www.w3.org/2000/svg" options="[object Object]" class="i8-flag"><path d="M.667 3v10h14.666V3H.667Z" fill="#FF3D00"></path><path d="m3.333 4.497.394 1.25H5l-1.03.709.393 1.21-1.03-.748-1.03.749.394-1.211-1.03-.71H2.94l.393-1.25Zm2.492-.838.118.375h.382l-.31.212.119.363-.31-.224-.308.224.118-.363-.31-.212h.383l.118-.375ZM5.833 8l.118.375h.382l-.309.212.118.364-.309-.225-.309.225.118-.364-.309-.212h.382L5.833 8Zm1.334-3 .118.375h.382l-.31.212.119.364-.31-.225-.308.225.118-.364-.31-.212h.383L7.167 5Zm0 1.667.118.375h.382l-.31.212.119.364-.31-.225-.308.225.118-.364-.31-.212h.383l.118-.375Z" fill="#FFEB3B"></path></svg>